<svg xmlns="http://www.w3.org/2000/svg" xmlns:xlink="http://www.w3.org/1999/xlink" width="691.131" height="112.766" viewBox="0 0 691.131 112.766"><defs><clipPath id="a"><rect width="691.131" height="112.766" transform="translate(0 0)" fill="#fff"/></clipPath></defs><g transform="translate(-614.071 -8670.979)"><g transform="translate(614.071 8670.979)" clip-path="url(#a)"><path d="M225.34,28.291a19.249,19.249,0,1,1,0,38.5H111a19.249,19.249,0,0,1,0-38.5H225.34m0-22.445H111a41.694,41.694,0,0,0,0,83.389H225.34a41.694,41.694,0,0,0,0-83.389" transform="translate(274.643 23.166)" fill="#fff"/><path d="M136.344,91.41h-22.9v-84c.481-.03.958-.079,1.429-.079,3.593-.01,7.186.035,10.773-.035a1.6,1.6,0,0,1,1.856,1.355c1.424,4.734,2.938,9.443,4.417,14.158.084.268.2.531.333.863,1.638-2,3.126-3.995,4.794-5.826,6.129-6.719,13.572-11.2,22.713-12.213,8.387-.928,16.3.387,22.167,7.2,2.04,2.372,3.444,5.28,5.151,7.965,1.082-1.216,2.337-2.695,3.677-4.1,5.9-6.173,13.016-10.133,21.557-11.071,7.156-.789,14.088-.01,19.944,4.764a23.363,23.363,0,0,1,7.955,13.915,64.263,64.263,0,0,1,1.31,12.242c.139,17.825.065,35.645.06,53.47,0,.437-.04.868-.065,1.385H218.73V89.7c0-16.1.02-32.211-.025-48.314a35.628,35.628,0,0,0-.536-6.292c-1.449-7.95-6.853-11.28-14.659-9.126-5.771,1.6-9.9,5.429-13.537,9.94a4.578,4.578,0,0,0-1.057,3.082q.06,25.256.025,50.522v1.866H166.168V89.708c0-16.053.02-32.107-.025-48.165A37.875,37.875,0,0,0,165.6,35.1c-1.365-7.836-6.838-11.294-14.515-9.18-6.287,1.732-10.714,5.985-14.436,11.071a3.316,3.316,0,0,0-.3,1.826q-.015,25.338-.01,50.671Z" transform="translate(449.525 21.249)" fill="#fff"/><path d="M32.157,91.47H9.285V7.362h5.464c2.263,0,4.531.06,6.789-.03a1.506,1.506,0,0,1,1.752,1.29c1.424,4.68,2.908,9.344,4.372,14.019.084.258.189.511.347.943,1.191-1.305,2.253-2.506,3.355-3.667,4.541-4.764,9.508-8.982,15.647-11.572A37.977,37.977,0,0,1,71.266,6.538c8.243,2,12.753,7.811,15.235,15.508A42.129,42.129,0,0,1,88.371,35.1q0,27.623,0,55.237c0,.337-.04.675-.069,1.1H65.529V89.748q0-24.3-.02-48.607a33.765,33.765,0,0,0-.491-5.7C63.663,27.728,57.9,24.815,50.964,25.361c-6.451.506-11.349,3.96-15.81,8.327a9.425,9.425,0,0,0-3.087,7.459c.189,16.153.089,32.305.089,48.463Z" transform="translate(36.791 21.213)" fill="#fff"/><path d="M69.815,66.562c.328-2.064.744-4.124.968-6.2.591-5.369,2.68-10.312,4.317-15.379,4.074-12.624,8.233-25.219,12.342-37.833.253-.764.377-1.409,1.5-1.4,7.23.055,14.461.03,21.691.035a8.384,8.384,0,0,1,.859.109c-.174.591-.3,1.092-.471,1.578Q96.325,48,81.656,88.53a1.806,1.806,0,0,1-2.079,1.439c-6.982-.055-13.969-.035-20.951-.015-.809,0-1.3-.114-1.628-1.022Q42.185,47.836,27.3,6.754c-.084-.228-.124-.466-.233-.878.516-.035.978-.094,1.439-.094,7.23,0,14.461.02,21.691-.025A1.62,1.62,0,0,1,52.06,7.1c5.1,15.84,10.327,31.645,15.289,47.525C68.51,58.329,68.8,62.309,69.5,66.16a2.517,2.517,0,0,0,.109.377l.208.025" transform="translate(107.259 22.793)" fill="#fff"/><path d="M79.038,91.44H56.166V7.327h5.771c2.164,0,4.332.065,6.491-.025a1.5,1.5,0,0,1,1.747,1.3c1.355,4.4,2.759,8.779,4.149,13.165.069.223.154.442.308.878.923-1.161,1.7-2.193,2.536-3.181,4.4-5.186,9.389-9.657,15.756-12.317,6.918-2.888,13.617-2.179,20.093,1.484a1.55,1.55,0,0,1,.893,1.975c-1.34,6.426-2.63,12.858-3.98,19.5-.481-.248-.893-.437-1.285-.665C98.386,23.574,88.685,24.681,80.03,32.8a3.44,3.44,0,0,0-.953,2.253Q79,62.308,79.038,89.565Z" transform="translate(222.553 21.243)" fill="#fff"/><path d="M22.827,89.775H0V28.6A22.827,22.827,0,0,1,22.827,5.776Z" transform="translate(0 22.889)" fill="#fff"/><path d="M69.7,89.776H46.882V28.6A22.822,22.822,0,0,1,69.7,5.777Z" transform="translate(185.766 22.892)" fill="#fff"/><path d="M0,22.737H0V0H22.738A22.738,22.738,0,0,1,0,22.737" transform="translate(0 -0.002)" fill="#fff"/><path d="M46.882,22.737h0V0H69.62A22.738,22.738,0,0,1,46.882,22.737" transform="translate(185.766 -0.002)" fill="#fff"/></g></g></svg>