<svg id="Слой_1" data-name="Слой 1" xmlns="http://www.w3.org/2000/svg" viewBox="0 0 1770.38 305.43"><defs><style>.cls-1{fill:#d9d3d0;opacity:0.19;isolation:isolate;}</style></defs><title>om</title><path class="cls-1" d="M1396.8,308.39h-81.26V10.27c1.71-.11,3.4-.28,5.07-.28,12.75,0,25.5.12,38.23-.12,3.84-.07,5.48,1.16,6.59,4.8,5.06,16.8,10.43,33.52,15.68,50.25.3,1,.72,1.88,1.18,3.06,5.81-7.1,11.1-14.17,17-20.67,21.75-23.85,48.17-39.75,80.61-43.34,29.76-3.3,57.85,1.37,78.67,25.55,7.24,8.42,12.22,18.74,18.28,28.27,3.84-4.32,8.3-9.57,13.05-14.55,20.94-21.91,46.2-36,76.51-39.29,25.4-2.8,50,0,70.78,16.91,15.66,12.78,24.32,30.11,28.23,49.38a227.36,227.36,0,0,1,4.65,43.45c.5,63.26.23,126.5.21,189.76,0,1.55-.14,3.09-.22,4.92h-80.88v-6.06c0-57.15.07-114.32-.09-171.47a125.7,125.7,0,0,0-1.9-22.33c-5.14-28.22-24.32-40-52-32.39-20.49,5.67-35.14,19.27-48,35.28a16.24,16.24,0,0,0-3.75,10.93q.21,89.64.09,179.31v6.62h-80.82v-5.91c0-57,.07-114-.09-171a134.79,134.79,0,0,0-1.92-22.86c-4.85-27.8-24.27-40.08-51.52-32.58-22.31,6.15-38,21.24-51.23,39.29-1.16,1.59-1.06,4.3-1.06,6.49q0,89.93,0,179.83Z" transform="translate(0 -3)"/><path class="cls-1" d="M1092,3.44H0V85.52H1092c37.73-.15,68.44,31.25,68.58,70.13s-30.32,70.53-68,70.68H0v82.1H1092c81.72,0,148-68.27,148-152.5S1173.72,3.44,1092,3.44Z" transform="translate(0 -3)"/></svg>