<svg xmlns="http://www.w3.org/2000/svg" xmlns:xlink="http://www.w3.org/1999/xlink" width="139.273" height="22.724" viewBox="0 0 139.273 22.724"><defs><clipPath id="a"><rect width="139.273" height="22.724" transform="translate(0 0)" fill="none"/></clipPath></defs><g transform="translate(0 0)" clip-path="url(#a)"><path d="M100.754,10.369a3.879,3.879,0,1,1,0,7.758H77.713a3.879,3.879,0,0,1,0-7.758h23.041m0-4.523H77.713a8.4,8.4,0,0,0,0,16.8h23.041a8.4,8.4,0,1,0,0-16.8" fill="#161615"/><path d="M118.061,22.7h-4.614V5.775c.1-.006.193-.016.288-.016.724,0,1.448.007,2.171-.007a.322.322,0,0,1,.374.273c.287.954.592,1.9.89,2.853.017.054.041.107.067.174.33-.4.63-.805.966-1.174a7.167,7.167,0,0,1,4.577-2.461,4.79,4.79,0,0,1,4.467,1.451,13.478,13.478,0,0,1,1.038,1.6c.218-.245.471-.543.741-.826a6.95,6.95,0,0,1,4.344-2.231,5.16,5.16,0,0,1,4.019.96,4.708,4.708,0,0,1,1.6,2.8,12.95,12.95,0,0,1,.264,2.467c.028,3.592.013,7.183.012,10.775,0,.088-.008.175-.013.279h-4.592v-.344c0-3.245,0-6.491,0-9.736a7.181,7.181,0,0,0-.108-1.268A2.129,2.129,0,0,0,131.6,9.514a5.384,5.384,0,0,0-2.728,2,.923.923,0,0,0-.213.621q.012,5.09.005,10.181v.376h-4.589v-.336c0-3.235,0-6.47,0-9.706a7.632,7.632,0,0,0-.109-1.3,2.127,2.127,0,0,0-2.925-1.85,5.424,5.424,0,0,0-2.909,2.231.668.668,0,0,0-.06.368q0,5.106,0,10.211Z" fill="#161615"/><path d="M13.894,22.707H9.285V5.758h1.1c.456,0,.913.012,1.368-.006a.3.3,0,0,1,.353.26c.287.943.586,1.883.881,2.825.017.052.038.1.07.19.24-.263.454-.505.676-.739a9.532,9.532,0,0,1,3.153-2.332,7.653,7.653,0,0,1,4.888-.364,4.224,4.224,0,0,1,3.07,3.125,8.49,8.49,0,0,1,.377,2.63q0,5.566,0,11.131c0,.068-.008.136-.014.222h-4.59v-.34q0-4.9,0-9.8a6.8,6.8,0,0,0-.1-1.149,2.393,2.393,0,0,0-2.832-2.031A5.1,5.1,0,0,0,14.5,11.063a1.9,1.9,0,0,0-.622,1.5c.038,3.255.018,6.51.018,9.766Z" fill="#161615"/><path d="M35.683,18.006c.066-.416.15-.831.195-1.249a15.765,15.765,0,0,1,.87-3.1c.821-2.544,1.659-5.082,2.487-7.624.051-.154.076-.284.3-.282,1.457.011,2.914.006,4.371.007a1.69,1.69,0,0,1,.173.022c-.035.119-.06.22-.1.318q-2.961,8.166-5.917,16.334a.364.364,0,0,1-.419.29c-1.407-.011-2.815-.007-4.222,0-.163,0-.262-.023-.328-.206q-2.985-8.281-5.984-16.56c-.017-.046-.025-.094-.047-.177.1-.007.2-.019.29-.019,1.457,0,2.914,0,4.371-.005a.326.326,0,0,1,.375.27c1.027,3.192,2.081,6.377,3.081,9.577a19.1,19.1,0,0,1,.433,2.325.507.507,0,0,0,.022.076l.042.005" fill="#161615"/><path d="M60.775,22.707H56.166V5.757h1.163c.436,0,.873.013,1.308-.005a.3.3,0,0,1,.352.261c.273.886.556,1.769.836,2.653.014.045.031.089.062.177.186-.234.343-.442.511-.641A8.516,8.516,0,0,1,63.573,5.72a4.4,4.4,0,0,1,4.049.3.312.312,0,0,1,.18.4c-.27,1.3-.53,2.591-.8,3.93-.1-.05-.18-.088-.259-.134a4.492,4.492,0,0,0-5.766.678.693.693,0,0,0-.192.454q-.015,5.491-.008,10.984Z" fill="#161615"/><path d="M4.6,22.7H0V10.376a4.6,4.6,0,0,1,4.6-4.6Z" fill="#161615"/><path d="M51.481,22.7h-4.6V10.376a4.6,4.6,0,0,1,4.6-4.6Z" fill="#161615"/><path d="M0,4.581H0V0H4.582A4.582,4.582,0,0,1,0,4.581" fill="#161615"/><path d="M46.882,4.581h0V0h4.582a4.582,4.582,0,0,1-4.582,4.582" fill="#161615"/></g></svg>